# xmcd CD database file
#
# Track frame offsets:
#	150
#	14800
#	29160
#	44645
#	62227
#	76457
#	89295
#	102370
#	118104
#	132800
#	147415
#	161765
#	174930
#	188587
#	204427
#	218117
#
# Disc length: 3095 seconds
#
# Revision: 0
# Processed by: cddbd v1.5.2PL0 Copyright (c) Steve Scherf et al.
# Submitted via: CDex 1.51
#
DISCID=ec0c1510
DTITLE=Mastruz com Leite - Solando Pra Você Dançar e Cantar Volume IV
DYEAR=1900
DGENRE=Forró
TTITLE0=massa de mandioca
TTITLE1=o gemidinho
TTITLE2=meu ex
TTITLE3=perguntas sem respostas
TTITLE4=tatuagem
TTITLE5=noite fria
TTITLE6=passe a mão no rabo dela
TTITLE7=mentiras
TTITLE8=anjo de guarda
TTITLE9=umbiguinho de fora
TTITLE10=mulher de cabaré
TTITLE11=da notícias
TTITLE12=me bate tiazinha
TTITLE13=o grande amor da minha vida
TTITLE14=doméstica
TTITLE15=sinhá meu bem
EXTD=
EXTT0=
EXTT1=
EXTT2=
EXTT3=
EXTT4=
EXTT5=
EXTT6=
EXTT7=
EXTT8=
EXTT9=
EXTT10=
EXTT11=
EXTT12=
EXTT13=
EXTT14=
EXTT15=
PLAYORDER=
